<?xml version="1.0" encoding="UTF-8"?>
<svg id="Camada_2" data-name="Camada 2" xmlns="http://www.w3.org/2000/svg" viewBox="0 0 36.73 25.91">
  <defs>
    <style>
      .cls-1 {
        fill: #fff;
        stroke-width: 0px;
      }
    </style>
  </defs>
  <g id="Camada_1-2" data-name="Camada 1">
    <g>
      <path class="cls-1" d="M30.07,8.04c-2.69,1.91-5.39,3.81-8.08,5.72-.33.24-.67.46-1.05.62-.61.25-1.21.38-1.8.41-1.58.07-3.08-.76-3.54-1.02-3.84-2.21-8.48-5.33-8.96-5.65.3-.54.86-.88,1.17-1.43.59.35,1.53.92,2.65,1.67,2.22,1.47,3.71,2.36,5.94,3.73,1.35.83,3.2,1.23,4.97-.14,2.38-1.84,4.89-3.51,7.35-5.24l1.34,1.33Z"/>
      <path class="cls-1" d="M36.73,15.58c0-3.94.02-7.89-.02-11.83-.02-2.14-1.71-3.73-3.83-3.73C23.27.01,13.67.04,4.07,0,1.56-.01,0,1.92,0,4.07c.01,5.96,0,11.93.01,17.89,0,2.38,1.89,3.97,3.97,3.95,4.79-.06,9.58-.02,14.38-.02,4.79,0,9.58,0,14.38,0,.3,0,.62,0,.91-.06,1.87-.4,3.07-1.91,3.08-3.88.01-2.12,0-4.25,0-6.37ZM34.96,4.67c.01.27,0,.46,0,.49-.07,1.29,0,10.55,0,16.51,0,1.56-.74,2.32-2.3,2.32-9.4,0-18.79-.02-28.19.03-1.77,0-2.71-.73-2.69-2.68.06-5.23,0-10.47.02-15.7,0-.23,0-.42,0-.52-.03-.18.04-1.92.46-2.48.26-.35.55-.47.55-.47.48-.27.95-.26,1.11-.26,4.81.01,9.62,0,14.42,0s9.65.05,14.48,0c.26,0,.87-.01,1.34.39.72.61.78,1.92.8,2.37Z"/>
    </g>
  </g>
</svg>