<svg width="21" height="20" viewBox="0 0 21 20" fill="none" xmlns="http://www.w3.org/2000/svg">
<g clip-path="url(#clip0_711_13)">
<path d="M22.6998 -2H-1.2002V20.1H22.6998V-2Z" fill="#005CFF"/>
<path d="M4.6 6.8999H2.5" stroke="white" stroke-width="1.4434" stroke-linecap="round" stroke-linejoin="round"/>
<path d="M4.6 12.7002H2.5" stroke="white" stroke-width="1.4434" stroke-linecap="round" stroke-linejoin="round"/>
<path d="M4.6 9.7998H1" stroke="white" stroke-width="1.4434" stroke-linecap="round" stroke-linejoin="round"/>
<path d="M4.5 3.69997C7 1.19997 10.7 0.499968 14 1.79997C17.2 3.09997 19.4 6.29997 19.4 9.79997C19.4 13.3 17.3 16.5 14 17.8C10.8 19.1 7 18.4 4.6 15.9" stroke="white" stroke-width="1.4434" stroke-linecap="round" stroke-linejoin="round"/>
<path d="M8.3002 7.29984L9.20019 9.49984C9.30019 9.69984 9.30019 9.99984 9.20019 10.1998L8.3002 12.3998C8.1002 12.7998 8.2002 13.1998 8.6002 13.4998C8.9002 13.7998 9.30019 13.7998 9.70019 13.5998L15.0002 10.6998C15.3002 10.4998 15.5002 10.1998 15.5002 9.89984C15.5002 9.49984 15.3002 9.19984 15.0002 9.09984L9.70019 6.09984C9.30019 5.89984 8.9002 5.89984 8.6002 6.19984C8.2002 6.49984 8.1002 6.89984 8.3002 7.29984Z" stroke="white" stroke-width="1.4434" stroke-linecap="round" stroke-linejoin="round"/>
<path d="M14.5002 9.7998H9.7002" stroke="white" stroke-width="1.4434" stroke-linecap="round" stroke-linejoin="round"/>
</g>
<defs>
<clipPath id="clip0_711_13">
<rect width="20.5" height="19.5" fill="white"/>
</clipPath>
</defs>
</svg>
