<?xml version="1.0" encoding="UTF-8"?>
<svg id="Camada_2" data-name="Camada 2" xmlns="http://www.w3.org/2000/svg" viewBox="0 0 25.14 17.67">
  <defs>
    <style>
      .cls-1 {
        fill: #fff;
        stroke-width: 0px;
      }
    </style>
  </defs>
  <g id="Camada_1-2" data-name="Camada 1">
    <path class="cls-1" d="M25.14,9.08c-.17.32-.44.56-.69.81-2.48,2.48-4.95,4.95-7.43,7.43-.27.27-.56.42-.94.32-.61-.17-.86-.85-.51-1.37.07-.1.16-.19.24-.28,2.01-2.01,4.03-4.02,6.05-6.03.06-.06.14-.11.22-.17-.12-.1-.21-.07-.3-.07-6.88,0-13.76,0-20.64,0-.11,0-.23,0-.34,0C.35,9.68,0,9.29,0,8.84c0-.46.34-.84.79-.88.11-.01.23,0,.34,0,6.87,0,13.75,0,20.62,0h.29c-.02-.11-.1-.16-.16-.21-2.04-2.04-4.07-4.08-6.11-6.11-.3-.3-.44-.63-.3-1.04.2-.57.89-.77,1.37-.4.08.06.16.14.23.22,2.53,2.53,5.07,5.07,7.6,7.6.19.19.36.39.47.64v.44Z"/>
  </g>
</svg>