<?xml version="1.0" encoding="utf-8"?>
<!-- Generator: Adobe Illustrator 28.3.0, SVG Export Plug-In . SVG Version: 6.00 Build 0)  -->
<svg version="1.1" id="Camada_2_00000168088020596455261620000001372744834108640429_"
	 xmlns="http://www.w3.org/2000/svg" xmlns:xlink="http://www.w3.org/1999/xlink" x="0px" y="0px" viewBox="0 0 407.4 408.3"
	 style="enable-background:new 0 0 407.4 408.3;" xml:space="preserve">
<style type="text/css">
	.st0{fill:#D8D8D8;}
	.st1{fill:#040404;}
</style>
<g id="Camada_1-2">
	<g>
		<path class="st0" d="M170.4,405.5c-13.6-2.2-39.3-7.9-67.7-24c-46.4-26.3-69.1-63-74.5-72.1c-13.1-22-21.8-46.9-25.8-74.8
			C-8.4,158.3,16.6,93.9,76.7,45.8C137-2.5,205.8-12.5,278,15.3c39.1,15.1,63,37.8,68.4,43.1c35.1,34,48.4,72.4,53.5,91.2
			c4.9,18,10.8,48.7,5.1,85.8c-1.4,9.4-4.5,25.1-11.8,43.6c-16.7,42.4-43.3,68.2-52.5,76.5c-30.6,27.9-62.8,40-82.2,45.3
			C220.8,411.3,188.6,408.5,170.4,405.5L170.4,405.5z M203.7,26.2c-98-0.1-178,79.6-178.5,177.9c-0.5,98.1,80,178.7,178.3,178.8
			c98,0.1,178-79.6,178.5-177.9C382.5,107,302.1,26.3,203.7,26.2z"/>
		<path class="st1" d="M149.4,200.3c0-4,2.1-6.8,4.6-9.3c24.8-24.8,49.6-49.5,74.3-74.4c2.5-2.5,3.7-2.4,6.3,0
			c3.2,3.1,5.8,5.1,8.5,8.2c1,1.1,1.1,2.7,0.3,3.9c-2.3,3.4-5.4,6.3-8.5,9.4c-19.2,19.3-38.3,38.6-57.8,57.6c-3.4,3.4-3.1,5,0.1,8.1
			c21.4,21.1,42.6,42.5,64,63.7c3.2,3.1,3.9,4.6,0.2,8.5c-2.6,2.7-4.7,6.5-7.4,8c-1.4,0.8-3.1,0.6-4.3-0.4c-3-2.5-5.7-4.9-8.4-7.7
			c-22.2-22.1-44.3-44.3-66.5-66.4C152.1,206.8,149.6,204.1,149.4,200.3L149.4,200.3z"/>
	</g>
</g>
</svg>
