<?xml version="1.0" encoding="utf-8"?>
<!-- Generator: Adobe Illustrator 28.3.0, SVG Export Plug-In . SVG Version: 6.00 Build 0)  -->
<svg version="1.1" id="Camada_2_00000168088020596455261620000001372744834108640429_"
	 xmlns="http://www.w3.org/2000/svg" xmlns:xlink="http://www.w3.org/1999/xlink" x="0px" y="0px" viewBox="0 0 407.4 408.3"
	 style="enable-background:new 0 0 407.4 408.3;" xml:space="preserve">
<style type="text/css">
	.st0{display:none;fill:#D8D8D8;}
	.st1{fill:none;stroke:#F7F7F7;stroke-width:10;stroke-miterlimit:10;}
	.st2{fill:#FFFFFF;}
</style>
<g id="Camada_1-2">
	<g>
		<g>
			<path class="st0" d="M174,399.1c-13.2-2.1-38-7.6-65.5-23.2c-44.9-25.5-66.9-61-72.1-69.8c-12.7-21.3-21.1-45.4-25-72.4
				C1,159.8,25.2,97.5,83.3,50.9c58.4-46.8,125-56.4,194.9-29.5C316,36,339.2,58,344.4,63.1c34,32.9,46.9,70.1,51.8,88.3
				c4.7,17.4,10.5,47.1,4.9,83.1c-1.4,9.1-4.4,24.3-11.4,42.2c-16.2,41-41.9,66-50.8,74.1c-29.6,27-60.8,38.7-79.6,43.9
				C222.8,404.7,191.7,402,174,399.1L174,399.1z"/>
			<path class="st1" d="M206.3,19.4C106.2,19.3,24.5,102,23.9,204.1C23.4,306,105.7,389.7,206.1,389.8
				c100.1,0.1,181.8-82.7,182.3-184.7C388.9,103.3,306.8,19.5,206.3,19.4z"/>
		</g>
		<path class="st2" d="M149.4,200.3c0-4,2.1-6.8,4.6-9.3c24.8-24.8,49.6-49.5,74.3-74.4c2.5-2.5,3.7-2.4,6.3,0
			c3.2,3.1,5.8,5.1,8.5,8.2c1,1.1,1.1,2.7,0.3,3.9c-2.3,3.4-5.4,6.3-8.5,9.4c-19.2,19.3-38.3,38.6-57.8,57.6c-3.4,3.4-3.1,5,0.1,8.1
			c21.4,21.1,42.6,42.5,64,63.7c3.2,3.1,3.9,4.6,0.2,8.5c-2.6,2.7-4.7,6.5-7.4,8c-1.4,0.8-3.1,0.6-4.3-0.4c-3-2.5-5.7-4.9-8.4-7.7
			c-22.2-22.1-44.3-44.3-66.5-66.4C152.1,206.8,149.6,204.1,149.4,200.3L149.4,200.3z"/>
	</g>
</g>
</svg>
