<?xml version="1.0" encoding="utf-8"?>
<!-- Generator: Adobe Illustrator 28.3.0, SVG Export Plug-In . SVG Version: 6.00 Build 0)  -->
<svg version="1.1" id="Camada_2_00000168088020596455261620000001372744834108640429_"
	 xmlns="http://www.w3.org/2000/svg" xmlns:xlink="http://www.w3.org/1999/xlink" x="0px" y="0px" viewBox="0 0 407.4 408.3"
	 style="enable-background:new 0 0 407.4 408.3;" xml:space="preserve">
<style type="text/css">
	.st0{display:none;fill:#D8D8D8;}
	.st1{fill:none;stroke:#F7F7F7;stroke-width:10;stroke-miterlimit:10;}
	.st2{fill:#FFFFFF;}
</style>
<g id="Camada_1-2">
	<g>
		<g>
			<path class="st0" d="M238.4,399.1c13.2-2.1,38-7.6,65.5-23.2c44.9-25.5,66.9-61,72.1-69.8c12.7-21.3,21.1-45.4,25-72.4
				c10.5-73.9-13.7-136.2-71.9-182.8c-58.4-46.8-125-56.4-194.9-29.5C96.4,36,73.3,58,68,63.1c-34,32.9-46.9,70.1-51.8,88.3
				c-4.7,17.4-10.5,47.1-4.9,83.1c1.4,9.1,4.4,24.3,11.4,42.2c16.2,41,41.9,66,50.8,74.1c29.6,27,60.8,38.7,79.6,43.9
				C189.6,404.7,220.8,402,238.4,399.1L238.4,399.1z"/>
			<path class="st1" d="M206.2,19.4C306.3,19.3,388,102,388.5,204.1C389,306,306.8,389.7,206.4,389.8C106.3,389.9,24.6,307.1,24,205
				C23.5,103.3,105.7,19.5,206.2,19.4z"/>
		</g>
		<path class="st2" d="M263,200.3c0-4-2.1-6.8-4.6-9.3c-24.8-24.8-49.6-49.5-74.3-74.4c-2.5-2.5-3.7-2.4-6.3,0
			c-3.2,3.1-5.8,5.1-8.5,8.2c-1,1.1-1.1,2.7-0.3,3.9c2.3,3.4,5.4,6.3,8.5,9.4c19.2,19.3,38.3,38.6,57.8,57.6c3.4,3.4,3.1,5-0.1,8.1
			c-21.4,21.1-42.6,42.5-64,63.7c-3.2,3.1-3.9,4.6-0.2,8.5c2.6,2.7,4.7,6.5,7.4,8c1.4,0.8,3.1,0.6,4.3-0.4c3-2.5,5.7-4.9,8.4-7.7
			c22.2-22.1,44.3-44.3,66.5-66.4C260.3,206.8,262.8,204.1,263,200.3L263,200.3z"/>
	</g>
</g>
</svg>
