<?xml version="1.0" encoding="utf-8"?>
<!-- Generator: Adobe Illustrator 28.3.0, SVG Export Plug-In . SVG Version: 6.00 Build 0)  -->
<svg version="1.1" id="Camada_2_00000168088020596455261620000001372744834108640429_"
	 xmlns="http://www.w3.org/2000/svg" xmlns:xlink="http://www.w3.org/1999/xlink" x="0px" y="0px" viewBox="0 0 407.4 408.3"
	 style="enable-background:new 0 0 407.4 408.3;" xml:space="preserve">
<style type="text/css">
	.st0{fill:#D8D8D8;}
	.st1{fill:#040404;}
</style>
<g id="Camada_1-2">
	<g>
		<path class="st0" d="M236.9,405.5c13.6-2.2,39.3-7.9,67.7-24c46.4-26.3,69.1-63,74.5-72.1c13.1-22,21.8-46.9,25.8-74.8
			c10.9-76.4-14.1-140.8-74.2-188.9C270.3-2.5,201.6-12.5,129.4,15.3c-39.1,15.1-63,37.8-68.4,43.1c-35.1,34-48.4,72.4-53.5,91.2
			c-4.9,18-10.8,48.7-5.1,85.8c1.4,9.4,4.5,25.1,11.8,43.6c16.7,42.4,43.3,68.2,52.5,76.5c30.6,27.9,62.8,40,82.2,45.3
			C186.6,411.3,218.8,408.5,236.9,405.5L236.9,405.5z M203.7,26.2c98-0.1,178,79.6,178.5,177.9c0.5,98.1-80,178.7-178.3,178.8
			c-98,0.1-178-79.6-178.5-177.9C24.9,107,105.3,26.3,203.7,26.2z"/>
		<path class="st1" d="M258,200.3c0-4-2.1-6.8-4.6-9.3c-24.8-24.8-49.6-49.5-74.3-74.4c-2.5-2.5-3.7-2.4-6.3,0
			c-3.2,3.1-5.8,5.1-8.5,8.2c-1,1.1-1.1,2.7-0.3,3.9c2.3,3.4,5.4,6.3,8.5,9.4c19.2,19.3,38.3,38.6,57.8,57.6c3.4,3.4,3.1,5-0.1,8.1
			c-21.4,21.1-42.6,42.5-64,63.7c-3.2,3.1-3.9,4.6-0.2,8.5c2.6,2.7,4.7,6.5,7.4,8c1.4,0.8,3.1,0.6,4.3-0.4c3-2.5,5.7-4.9,8.4-7.7
			c22.2-22.1,44.3-44.3,66.5-66.4C255.2,206.8,257.7,204.1,258,200.3L258,200.3z"/>
	</g>
</g>
</svg>
